<?xml version="1.0" encoding="UTF-8"?> <svg xmlns="http://www.w3.org/2000/svg" id="Layer_2" viewBox="0 0 338.43 105.35"><defs><style>.cls-1{fill:#ef233c;stroke-width:0px;}</style></defs><g id="Layer_1-2"><path class="cls-1" d="M103.91,44.16c1.05-.57,2.28-.86,3.69-.86,1.65,0,3.14.42,4.47,1.25,1.34.84,2.39,2.03,3.17,3.58.77,1.55,1.16,3.35,1.16,5.4s-.39,3.86-1.16,5.42c-.78,1.56-1.83,2.77-3.17,3.61-1.34.85-2.83,1.27-4.47,1.27-1.38,0-2.61-.29-3.67-.86-1.06-.57-1.89-1.31-2.49-2.22v12.31h-6.12v-29.49h6.12v2.83c.6-.93,1.42-1.68,2.47-2.26ZM108.91,49.94c-.85-.87-1.89-1.31-3.13-1.31s-2.25.44-3.1,1.32c-.85.88-1.27,2.09-1.27,3.62s.42,2.73,1.27,3.61c.85.88,1.88,1.32,3.1,1.32s2.25-.45,3.11-1.34c.86-.89,1.29-2.1,1.29-3.63s-.42-2.73-1.27-3.6Z"></path><path class="cls-1" d="M119.57,48.13c.77-1.55,1.83-2.74,3.17-3.58,1.34-.84,2.83-1.25,4.47-1.25,1.41,0,2.64.29,3.7.86,1.06.57,1.88,1.32,2.45,2.26v-2.83h6.12v19.97h-6.12v-2.83c-.6.93-1.43,1.68-2.49,2.26-1.06.57-2.3.86-3.7.86-1.62,0-3.1-.42-4.44-1.27-1.34-.85-2.39-2.05-3.17-3.61-.78-1.56-1.16-3.37-1.16-5.42s.39-3.85,1.16-5.4ZM132.1,49.96c-.85-.88-1.88-1.32-3.1-1.32s-2.25.44-3.1,1.31c-.85.87-1.27,2.07-1.27,3.6s.42,2.74,1.27,3.63c.85.89,1.88,1.34,3.1,1.34s2.25-.44,3.1-1.32c.85-.88,1.27-2.09,1.27-3.61s-.42-2.73-1.27-3.62Z"></path><path class="cls-1" d="M152.73,44.32c1.07-.63,2.27-.95,3.58-.95v6.48h-1.68c-1.53,0-2.67.33-3.44.98-.76.66-1.15,1.81-1.15,3.45v9.27h-6.12v-19.97h6.12v3.33c.72-1.1,1.61-1.96,2.68-2.59Z"></path><path class="cls-1" d="M159.19,48.13c.77-1.55,1.83-2.74,3.17-3.58,1.34-.84,2.83-1.25,4.47-1.25,1.41,0,2.64.29,3.7.86,1.06.57,1.88,1.32,2.45,2.26v-2.83h6.12v19.97h-6.12v-2.83c-.6.93-1.43,1.68-2.49,2.26-1.06.57-2.3.86-3.7.86-1.62,0-3.1-.42-4.44-1.27-1.34-.85-2.39-2.05-3.17-3.61-.78-1.56-1.16-3.37-1.16-5.42s.39-3.85,1.16-5.4ZM171.71,49.96c-.85-.88-1.88-1.32-3.1-1.32s-2.25.44-3.1,1.31c-.85.87-1.27,2.07-1.27,3.6s.42,2.74,1.27,3.63c.85.89,1.88,1.34,3.1,1.34s2.25-.44,3.1-1.32c.85-.88,1.27-2.09,1.27-3.61s-.42-2.73-1.27-3.62Z"></path><path class="cls-1" d="M194.83,44.16c1.06.57,1.88,1.32,2.45,2.26v-2.83h6.12v19.93c0,1.84-.36,3.5-1.09,4.99-.73,1.49-1.84,2.68-3.33,3.56-1.49.88-3.35,1.32-5.57,1.32-2.96,0-5.36-.7-7.19-2.09-1.84-1.4-2.89-3.29-3.15-5.67h6.05c.19.76.64,1.37,1.36,1.81.71.44,1.6.66,2.65.66,1.26,0,2.27-.36,3.02-1.09.75-.73,1.13-1.89,1.13-3.49v-2.83c-.6.93-1.42,1.69-2.47,2.27-1.05.58-2.28.88-3.69.88-1.65,0-3.14-.42-4.47-1.27-1.34-.85-2.39-2.05-3.17-3.61-.78-1.56-1.16-3.37-1.16-5.42s.39-3.85,1.16-5.4c.77-1.55,1.83-2.74,3.17-3.58,1.34-.84,2.83-1.25,4.47-1.25,1.41,0,2.64.29,3.7.86ZM196.01,49.96c-.85-.88-1.88-1.32-3.1-1.32s-2.25.44-3.1,1.31c-.85.87-1.27,2.07-1.27,3.6s.42,2.74,1.27,3.63c.85.89,1.88,1.34,3.1,1.34s2.25-.44,3.1-1.32c.85-.88,1.27-2.09,1.27-3.61s-.43-2.73-1.27-3.62Z"></path><path class="cls-1" d="M211.65,62.59c-1.56-.84-2.79-2.03-3.69-3.58-.89-1.55-1.34-3.36-1.34-5.44s.45-3.86,1.36-5.42c.91-1.56,2.15-2.76,3.72-3.6,1.58-.84,3.34-1.25,5.3-1.25s3.72.42,5.3,1.25c1.57.84,2.82,2.03,3.72,3.6.91,1.56,1.36,3.37,1.36,5.42s-.46,3.86-1.38,5.42c-.92,1.56-2.17,2.76-3.76,3.6-1.59.84-3.36,1.25-5.31,1.25s-3.72-.42-5.28-1.25ZM219.92,57.26c.82-.86,1.23-2.09,1.23-3.69s-.4-2.83-1.2-3.69c-.8-.86-1.78-1.29-2.95-1.29s-2.18.42-2.97,1.27c-.79.85-1.18,2.08-1.18,3.7s.39,2.83,1.16,3.69c.77.86,1.75,1.29,2.92,1.29s2.17-.43,2.99-1.29Z"></path><path class="cls-1" d="M248.41,45.65c1.4,1.52,2.09,3.6,2.09,6.24v11.67h-6.08v-10.84c0-1.34-.35-2.37-1.04-3.11-.69-.74-1.62-1.11-2.79-1.11s-2.1.37-2.79,1.11c-.69.74-1.04,1.78-1.04,3.11v10.84h-6.12v-19.97h6.12v2.65c.62-.88,1.45-1.58,2.51-2.09,1.05-.51,2.23-.77,3.54-.77,2.34,0,4.21.76,5.6,2.27Z"></path><path class="cls-1" d="M263.74,57.83l4.33-14.24h6.51l-7.09,19.97h-7.55l-7.09-19.97h6.55l4.33,14.24Z"></path><path class="cls-1" d="M277.61,40.56c-.68-.63-1.02-1.41-1.02-2.34s.34-1.75,1.02-2.38,1.56-.95,2.63-.95,1.91.32,2.59.95c.68.63,1.02,1.43,1.02,2.38s-.34,1.71-1.02,2.34c-.68.63-1.55.95-2.59.95s-1.95-.32-2.63-.95ZM283.28,43.59v19.97h-6.12v-19.97h6.12Z"></path><path class="cls-1" d="M306.44,55.04h-13.85c.1,1.24.5,2.19,1.2,2.84s1.57.98,2.59.98c1.53,0,2.59-.64,3.19-1.93h6.51c-.33,1.31-.94,2.49-1.81,3.54-.87,1.05-1.96,1.87-3.27,2.47-1.31.6-2.78.89-4.4.89-1.96,0-3.7-.42-5.23-1.25-1.53-.84-2.72-2.03-3.58-3.58-.86-1.55-1.29-3.36-1.29-5.44s.42-3.89,1.27-5.44c.85-1.55,2.03-2.74,3.56-3.58,1.53-.84,3.28-1.25,5.26-1.25s3.65.41,5.15,1.22c1.5.81,2.68,1.97,3.53,3.47.85,1.5,1.27,3.26,1.27,5.26,0,.57-.04,1.17-.11,1.79ZM300.28,51.64c0-1.05-.36-1.88-1.07-2.51-.72-.62-1.61-.93-2.68-.93s-1.89.3-2.59.89c-.7.6-1.14,1.44-1.31,2.54h7.66Z"></path><path class="cls-1" d="M338.43,43.59l-5.4,19.97h-6.76l-3.15-12.96-3.26,12.96h-6.73l-5.44-19.97h6.12l2.83,14.28,3.36-14.28h6.48l3.4,14.21,2.79-14.21h5.76Z"></path><rect class="cls-1" x="-5.63" y="14.57" width="47.34" height="8.88" rx="4.44" ry="4.44" transform="translate(-8.16 18.32) rotate(-45)"></rect><rect class="cls-1" x="4.98" y="20.92" width="68.05" height="8.88" rx="4.44" ry="4.44" transform="translate(-6.51 35.01) rotate(-45)"></rect><rect class="cls-1" x="16.7" y="29.87" width="81.36" height="8.88" rx="4.44" ry="4.44" transform="translate(-7.45 50.62) rotate(-45)"></rect><rect class="cls-1" x="31.64" y="46.68" width="72.51" height="8.88" rx="4.42" ry="4.42" transform="translate(-16.26 62.98) rotate(-45)"></rect><rect class="cls-1" x="50.94" y="73.94" width="34.02" height="8.88" rx="4.44" ry="4.44" transform="translate(-35.52 71.01) rotate(-45)"></rect><rect class="cls-1" x="64.62" y="87.58" width="34.02" height="8.88" rx="4.44" ry="4.44" transform="translate(-41.16 84.68) rotate(-45)"></rect></g></svg> 